<svg xmlns="http://www.w3.org/2000/svg" viewBox="0 0 136 104"><path d="M0 0 C20.665853 -0.201445 41.333167 -0.259293 62 -0.25 C73.4675 -0.255156 84.935 -0.260313 96.75 -0.265625 C105.7425 -0.177969 114.735 -0.090312 124 0 C124.99 0.99 124.99 0.99 126 2 C126.17441 17.019951 126.213097 32.041558 126.1875 47.0625 C126.177832 59.547715 126.177832 59.547715 126.167969 72.285156 C126.112539 78.791055 126.057109 85.296953 126 92 C125.67 92.33 125.34 92.66 125 93 C107.145975 93.074182 89.291667 93.083382 71.4375 93.0625 C61.515586 93.053477 51.593672 93.044453 41.371094 93.035156 C29.802402 93.017754 29.802402 93.017754 18 93 C17.34 92.01 16.68 91.02 16 90 C15.860163 87.440979 15.831197 84.874964 15.875 82.3125 C15.893047 80.947383 15.911094 79.582266 15.929688 78.175781 C15.952891 77.127773 15.976094 76.079766 16 75 C14.784414 74.939414 13.568828 74.878828 12.316406 74.816406 C9.963223 74.690723 9.963223 74.690723 7.5625 74.5625 C5.996289 74.481289 4.430078 74.400078 2.816406 74.316406 C1.556992 74.211992 0.297578 74.107578 -1 74 C-1.33 73.67 -1.66 73.34 -2 73 C-2.127521 61.188023 -2.175894 49.37516 -2.1875 37.5625 C-2.20168 31.005039 -2.215859 24.447578 -2.230469 17.691406 C-2.154414 12.513242 -2.078359 7.335078 -2 2 C-1.34 1.34 -0.68 0.68 0 0 Z M19 19 C18.01 20.485 18.01 20.485 17 22 C16.801207 30.352217 16.74061 38.707923 16.75 47.0625 C16.744844 51.652852 16.739687 56.243203 16.734375 60.972656 C16.822031 64.61168 16.909688 68.250703 17 72 C17.66 72.66 18.32 73.32 19 74 C33.144649 74.201095 47.291424 74.259305 61.4375 74.25 C69.273711 74.255156 77.109922 74.260312 85.183594 74.265625 C91.393008 74.177969 97.602422 74.090313 104 74 C104.99 73.34 105.98 72.68 107 72 C107.053687 63.729236 107.092647 55.458375 107.125 47.1875 C107.148203 42.58168 107.171406 37.975859 107.195312 33.230469 C107.130859 29.524414 107.066406 25.818359 107 22 C106.01 20.515 106.01 20.515 105 19 C76.62 19 48.24 19 19 19 Z " fill="currentColor" transform="translate(6,6)"/><path d="M0 0 C2.199219 0.214844 2.199219 0.214844 5 1 C7.457031 3.066406 7.457031 3.066406 9.8125 5.5625 C10.602695 6.388789 11.392891 7.215078 12.207031 8.066406 C12.798711 8.704492 13.390391 9.342578 14 10 C13.785156 12.199219 13.785156 12.199219 13 15 C10.933594 17.457031 10.933594 17.457031 8.4375 19.8125 C7.611211 20.602695 6.784922 21.392891 5.933594 22.207031 C5.295508 22.798711 4.657422 23.390391 4 24 C1.765625 23.738281 1.765625 23.738281 -1 23 C-3.203125 21.292969 -3.203125 21.292969 -5.25 19.1875 C-5.935781 18.50043 -6.621563 17.813359 -7.328125 17.105469 C-7.879844 16.410664 -8.431562 15.715859 -9 15 C-9.734375 12.738281 -9.734375 12.738281 -10 11 C-8.897189 9.72799 -7.792692 8.457441 -6.6875 7.1875 C-6.072617 6.479805 -5.457734 5.772109 -4.824219 5.042969 C-3.266657 3.298633 -1.673411 1.63222 0 0 Z " fill="currentColor" transform="translate(53,40)"/><path d="M0 0 C2.730469 0.261719 2.730469 0.261719 6 1 C8.300781 2.707031 8.300781 2.707031 10.3125 4.8125 C10.989258 5.49957 11.666016 6.186641 12.363281 6.894531 C12.903398 7.589336 13.443516 8.284141 14 9 C14.730469 11.261719 14.730469 11.261719 15 13 C13.921736 14.275138 12.837145 15.544926 11.75 16.8125 C11.146719 17.520195 10.543437 18.227891 9.921875 18.957031 C8.009897 20.98948 6.432568 22.623679 4 24 C3.181445 23.97293 2.362891 23.945859 1.519531 23.917969 C-1 23 -1 23 -3.238281 21.363281 C-3.922773 20.686523 -4.607266 20.009766 -5.3125 19.3125 C-6.009883 18.648633 -6.707266 17.984766 -7.425781 17.300781 C-7.945273 16.541523 -8.464766 15.782266 -9 15 C-9.168867 14.021602 -9.337734 13.043203 -9.511719 12.035156 C-9.342852 11.033555 -9.173984 10.031953 -9 9 C-7.03125 6.445312 -7.03125 6.445312 -4.5 4.125 C-3.664687 3.343828 -2.829375 2.562656 -1.96875 1.757812 C-1.319063 1.177734 -0.669375 0.597656 0 0 Z " fill="currentColor" transform="translate(89,40)"/></svg>
